# This file uses centimeters as units for non-parametric coordinates.

mtllib LOTRbook.mtl
g default
v -1.086687 -1.556816 0.484727
v -1.086687 -1.541543 0.500000
v -1.101960 -1.541543 0.484727
v -0.960521 -1.556816 0.486964
v -0.960521 -1.543779 0.500000
v -0.986594 -1.543779 0.500000
v -0.986594 -1.556816 0.486964
v -1.101960 1.541543 0.484727
v -1.086687 1.541543 0.500000
v -1.086687 1.556816 0.484727
v -0.960521 1.543779 0.500000
v -0.960521 1.556816 0.486964
v -0.986594 1.556816 0.486964
v -0.986594 1.543779 0.500000
v -1.086687 1.556816 -0.484727
v -1.086687 1.541543 -0.500000
v -1.101960 1.541543 -0.484727
v -0.960521 1.556816 -0.486964
v -0.960521 1.543779 -0.500000
v -0.986594 1.543779 -0.500000
v -0.986594 1.556816 -0.486964
v -1.101960 -1.541543 -0.484727
v -1.086687 -1.541543 -0.500000
v -1.086687 -1.556816 -0.484727
v -0.960521 -1.543779 -0.500000
v -0.960521 -1.556816 -0.486964
v -0.986594 -1.556816 -0.486964
v -0.986594 -1.543779 -0.500000
v 1.086687 -1.556816 0.484727
v 1.101960 -1.541543 0.484727
v 1.086687 -1.541543 0.500000
v 1.086687 1.541543 0.500000
v 1.101960 1.541543 0.484727
v 1.086687 1.556816 0.484727
v -1.088924 1.556816 0.420594
v -1.128621 1.543779 0.420594
v -1.117715 1.543779 0.446667
v -1.088924 1.556816 0.446667
v 1.079378 1.544932 0.430317
v 1.087543 1.556816 0.448047
v 1.101960 1.542693 0.447754
v 1.090850 1.519585 0.428982
v 1.086687 1.556816 -0.484727
v 1.101960 1.541543 -0.484727
v 1.086687 1.541543 -0.500000
v 1.086687 -1.541543 -0.500000
v 1.101960 -1.541543 -0.484727
v 1.086687 -1.556816 -0.484727
v -1.088924 -1.556816 -0.421707
v -1.128621 -1.543779 -0.421707
v -1.117715 -1.543779 -0.447780
v -1.088924 -1.556816 -0.447780
v 1.079378 -1.544932 -0.431429
v 1.087543 -1.556816 -0.449160
v 1.101960 -1.542693 -0.448866
v 1.090850 -1.519585 -0.430095
v -1.088924 1.556816 -0.447780
v -1.117715 1.543779 -0.447780
v -1.128621 1.543779 -0.421707
v -1.088924 1.556816 -0.421707
v -0.973766 1.541478 0.413428
v -0.986646 1.556816 0.420542
v -0.984357 1.556816 0.444431
v -0.961378 1.556816 0.445811
v -0.959315 1.542916 0.429754
v -1.088924 -1.556816 0.420594
v -1.088924 -1.556816 0.446667
v -1.117715 -1.543779 0.446667
v -1.128621 -1.543779 0.420594
v 1.090850 -1.519585 0.428982
v 1.101960 -1.542693 0.447754
v 1.087543 -1.556816 0.448047
v 1.079378 -1.544932 0.430317
v -0.959315 -1.542916 0.429754
v -0.961378 -1.556816 0.445811
v -0.984357 -1.556816 0.444431
v -0.986646 -1.556816 0.420542
v -0.973766 -1.541478 0.413428
v 1.090850 1.519585 -0.430095
v 1.101960 1.542693 -0.448866
v 1.087543 1.556816 -0.449160
v 1.079378 1.544932 -0.431429
v -0.959315 1.542916 -0.430866
v -0.961378 1.556816 -0.446923
v -0.984357 1.556816 -0.445543
v -0.986646 1.556816 -0.421654
v -0.973766 1.541478 -0.414540
v -0.973766 -1.541478 -0.414540
v -0.986646 -1.556816 -0.421654
v -0.984357 -1.556816 -0.445543
v -0.961378 -1.556816 -0.446923
v -0.959315 -1.542916 -0.430866
v -0.959994 1.492875 -0.416910
v -0.974407 1.494313 -0.401387
v -0.960146 1.478975 -0.398565
v -0.960146 1.478975 0.397453
v -0.974407 1.494313 0.400274
v -0.959994 1.492875 0.415798
v 1.050072 1.464852 0.397798
v 1.035655 1.478975 0.397505
v 1.043332 1.490858 0.415236
v 1.061182 1.475079 0.416570
v 1.061182 1.475079 -0.417682
v 1.043332 1.490858 -0.416348
v 1.035655 1.478975 -0.398617
v 1.050072 1.464852 -0.398910
v -0.974407 -1.494313 -0.401387
v -0.959994 -1.492875 -0.416910
v -0.960146 -1.478975 -0.398565
v 1.050072 -1.464852 -0.398910
v 1.035655 -1.478975 -0.398617
v 1.043332 -1.490858 -0.416348
v 1.061182 -1.475079 -0.417682
v 1.061182 -1.475079 0.416570
v 1.043332 -1.490858 0.415236
v 1.035655 -1.478975 0.397505
v 1.050072 -1.464852 0.397798
v -0.960146 -1.478975 0.397453
v -0.959994 -1.492875 0.415798
v -0.974407 -1.494313 0.400274
vt 0.347848 0.022901
vt 0.364430 0.022901
vt 0.376927 0.022901
vt 0.364430 0.024249
vt 0.380182 0.983958
vt 0.376927 0.983958
vt 0.380182 0.022901
vt 0.380182 0.024053
vt 0.358321 0.395689
vt 0.364430 0.394339
vt 0.376927 0.394537
vt 0.380182 0.394537
vt 0.380182 0.399276
vt 0.221953 0.395689
vt 0.364430 0.533177
vt 0.364430 0.527627
vt 0.207585 0.394339
vt 0.376927 0.528242
vt 0.380182 0.528242
vt 0.380182 0.532981
vt 0.211787 0.022901
vt 0.221953 0.022901
vt 0.364430 0.852281
vt 0.376927 0.852479
vt 0.380182 0.852479
vt 0.380182 0.857218
vt 0.637681 0.983343
vt 0.635774 0.983343
vt 0.637681 0.973170
vt 0.641883 0.024253
vt 0.635774 0.394339
vt 0.637681 0.399891
vt 0.364151 0.417534
vt 0.364151 0.410364
vt 0.377206 0.410979
vt 0.340674 0.395689
vt 0.340674 0.394537
vt 0.347848 0.024056
vt 0.637681 0.413951
vt 0.635854 0.413951
vt 0.380075 0.410599
vt 0.652056 0.394441
vt 0.652056 0.024149
vt 0.637681 0.527627
vt 0.635774 0.527627
vt 0.637681 0.517759
vt 0.637681 0.533179
vt 0.635774 0.852281
vt 0.637681 0.857833
vt 0.364151 0.875170
vt 0.364151 0.868000
vt 0.377206 0.868615
vt 0.229128 0.022901
vt 0.340674 0.022901
vt 0.340674 0.024053
vt 0.229128 0.024053
vt 0.229128 0.394537
vt 0.221953 0.394537
vt 0.637681 0.871587
vt 0.635854 0.871587
vt 0.380075 0.868235
vt 0.780520 0.024149
vt 0.780520 0.394441
vt 0.364151 0.510286
vt 0.377206 0.516845
vt 0.380401 0.413951
vt 0.378554 0.418563
vt 0.376920 0.510272
vt 0.364151 0.965697
vt 0.377206 0.972255
vt 0.637681 0.969284
vt 0.637681 0.969284
vt 0.635881 0.973250
vt 0.380075 0.972635
vt 0.376920 0.965682
vt 0.376920 0.875187
vt 0.637681 0.513873
vt 0.637681 0.513873
vt 0.635881 0.517840
vt 0.380075 0.517225
vt 0.378554 0.509491
vt 0.380401 0.871587
vt 0.635850 0.513873
vt 0.378554 0.509491
vt 0.378554 0.418563
vt 0.380401 0.413951
vt 0.635854 0.413951
vt 0.660033 0.394375
vt 0.655943 0.393872
vt 0.655943 0.024814
vt 0.637681 0.418041
vt 0.635836 0.509698
vt 0.772544 0.394375
vt 0.772544 0.024215
vt 0.776634 0.024719
vt 0.378554 0.964902
vt 0.380401 0.871587
vt 0.635854 0.871587
vt 0.637681 0.875677
vt 0.637681 0.965193
vt 0.635850 0.969284
vt 0.380401 0.969284
vt 0.380406 0.965093
vt 0.635774 0.024251
vt 0.635774 0.399891
vt 0.635881 0.409984
vt 0.635774 0.533179
vt 0.358321 0.024253
vt 0.358321 0.394339
vt 0.347849 0.394537
vt 0.380406 0.509682
vt 0.380406 0.418142
vt 0.635836 0.418126
vt 0.380406 0.875777
vt 0.635836 0.875762
vt 0.635836 0.965108
vt 0.660033 0.024215
vt 0.211787 0.024249
vt 0.221953 0.024057
vt 0.211787 0.394339
vt 0.635774 0.857833
vt 0.635881 0.867620
vt 0.790388 0.024251
vt 0.790388 0.394339
vt 0.364430 0.399891
vt 0.376927 0.399276
vt 0.376927 0.024051
vt 0.364151 0.972871
vt 0.364430 0.983343
vt 0.364430 0.857833
vt 0.376927 0.857218
vt 0.376927 0.532979
vt 0.364151 0.517460
vt 0.376920 0.417551
vt 0.635850 0.513873
vt 0.380401 0.513873
vt 0.380401 0.513873
vt 0.635850 0.969284
vt 0.380401 0.969284
vt 0.378554 0.964902
vt 0.378554 0.876199
vt 0.378554 0.876199
vt 0.655943 0.393872
vt 0.655943 0.024814
vt 0.776634 0.024719
vt 0.776634 0.393776
vt 0.776634 0.393776
vt 0.358321 0.022901
vt 0.378554 0.022901
vt 0.211787 0.395689
vt 0.207585 0.024249
vt 0.635774 0.022901
vt 0.641883 0.394339
vt 0.344261 0.395689
vt 0.347849 0.395689
vt 0.637681 0.410065
vt 0.636384 0.413951
vt 0.637681 0.852281
vt 0.225541 0.022901
vt 0.637681 0.867701
vt 0.636386 0.871587
vt 0.225541 0.395689
vt 0.229128 0.395689
vt 0.344261 0.022901
vt 0.636391 0.969375
vt 0.636392 0.513962
vt 0.637681 0.413951
vt 0.637681 0.509783
vt 0.637681 0.871587
vn -0.534344 -0.831718 0.150738
vn -0.534344 -0.831718 0.150738
vn -0.429698 -0.896767 0.105679
vn -0.451084 -0.885070 0.114779
vn -0.015799 -0.707014 0.707023
vn -0.015799 -0.707014 0.707023
vn -0.012768 -0.707046 0.707053
vn -0.012768 -0.707046 0.707053
vn -0.707106 0.000000 0.707108
vn -0.707106 0.000000 0.707108
vn -0.707106 0.000000 0.707108
vn -0.707106 0.000000 0.707108
vn 0.000000 -1.000000 -0.000003
vn 0.000000 -1.000000 -0.000001
vn 0.000000 -1.000000 -0.000001
vn 0.000000 -1.000000 -0.000003
vn 0.000764 -0.707104 0.707109
vn 0.000764 -0.707104 0.707109
vn 0.000773 -0.707104 0.707109
vn 0.000773 -0.707104 0.707109
vn 0.000000 0.000000 1.000000
vn 0.000000 0.000000 1.000000
vn 0.000000 0.000000 1.000000
vn 0.000000 0.000000 1.000000
vn -0.534344 0.831718 0.150737
vn -0.534344 0.831718 0.150737
vn -0.451084 0.885070 0.114778
vn -0.429698 0.896767 0.105679
vn -0.015799 0.707014 0.707023
vn -0.015799 0.707014 0.707023
vn -0.012768 0.707046 0.707053
vn -0.012768 0.707046 0.707053
vn 0.000764 0.707104 0.707109
vn 0.000764 0.707104 0.707109
vn 0.000773 0.707104 0.707109
vn 0.000773 0.707104 0.707109
vn 0.000000 1.000000 -0.000001
vn 0.000000 1.000000 -0.000003
vn 0.000000 1.000000 -0.000003
vn 0.000000 1.000000 -0.000000
vn -0.533974 0.831141 -0.155168
vn -0.533974 0.831140 -0.155168
vn -0.428006 0.897446 -0.106775
vn -0.449672 0.885558 -0.116543
vn -0.015799 0.707014 -0.707023
vn -0.015799 0.707014 -0.707023
vn -0.012768 0.707046 -0.707053
vn -0.012768 0.707046 -0.707053
vn -0.707106 0.000000 -0.707108
vn -0.707106 0.000000 -0.707108
vn -0.707106 0.000000 -0.707108
vn -0.707106 0.000000 -0.707108
vn 0.000000 1.000000 0.000003
vn 0.000000 1.000000 0.000001
vn 0.000000 1.000000 0.000001
vn 0.000000 1.000000 0.000003
vn 0.000764 0.707104 -0.707109
vn 0.000764 0.707104 -0.707109
vn 0.000773 0.707104 -0.707109
vn 0.000773 0.707104 -0.707109
vn 0.000000 0.000000 -1.000000
vn 0.000000 0.000000 -1.000000
vn 0.000000 0.000000 -1.000000
vn 0.000000 0.000000 -1.000000
vn -0.533974 -0.831140 -0.155167
vn -0.533974 -0.831141 -0.155167
vn -0.449672 -0.885558 -0.116543
vn -0.428006 -0.897446 -0.106775
vn -0.015799 -0.707014 -0.707023
vn -0.015799 -0.707014 -0.707023
vn -0.012768 -0.707046 -0.707053
vn -0.012768 -0.707046 -0.707053
vn 0.000764 -0.707104 -0.707109
vn 0.000764 -0.707104 -0.707109
vn 0.000773 -0.707104 -0.707109
vn 0.000773 -0.707104 -0.707109
vn 0.000000 -1.000000 0.000001
vn 0.000000 -1.000000 0.000003
vn 0.000000 -1.000000 0.000003
vn 0.000000 -1.000000 0.000000
vn 0.703554 -0.710381 0.019271
vn 0.703554 -0.710381 0.019271
vn 0.703554 -0.710381 0.019271
vn 0.703554 -0.710381 0.019271
vn 0.707106 0.000000 0.707108
vn 0.707106 0.000000 0.707108
vn 0.707106 0.000000 0.707108
vn 0.707106 0.000000 0.707108
vn 0.703554 0.710381 0.019271
vn 0.703554 0.710381 0.019271
vn 0.703554 0.710381 0.019271
vn 0.703554 0.710381 0.019271
vn 0.000000 1.000000 0.000000
vn 0.000000 1.000000 -0.000001
vn 0.000000 1.000000 0.000000
vn -0.312899 0.949785 0.001506
vn -0.313172 0.949695 0.001967
vn -0.313172 0.949695 -0.001967
vn -0.312899 0.949785 -0.001506
vn -0.923378 0.000000 0.383891
vn -0.999921 0.000000 0.012558
vn -0.999921 0.000000 0.012558
vn -0.923378 0.000000 0.383891
vn 0.002601 0.267033 -0.963684
vn 0.377297 0.006771 -0.926067
vn 0.384438 0.001197 -0.923150
vn 0.002023 0.267390 -0.963586
vn 0.000023 0.794969 -0.606650
vn 0.000023 0.794969 -0.606650
vn 0.008597 0.797821 -0.602833
vn 0.007382 0.797421 -0.603378
vn 0.860567 0.000000 -0.509337
vn 0.860567 0.000000 -0.509337
vn 0.860567 0.000000 -0.509337
vn 0.860567 0.000000 -0.509337
vn 0.703546 0.710372 -0.019871
vn 0.703546 0.710372 -0.019871
vn 0.703546 0.710372 -0.019871
vn 0.703546 0.710372 -0.019871
vn 0.707106 0.000000 -0.707108
vn 0.707106 0.000000 -0.707108
vn 0.707106 0.000000 -0.707108
vn 0.707106 0.000000 -0.707108
vn 0.703546 -0.710372 -0.019870
vn 0.703546 -0.710372 -0.019870
vn 0.703546 -0.710372 -0.019870
vn 0.703546 -0.710372 -0.019870
vn 0.000000 -1.000000 0.000000
vn 0.000000 -1.000000 0.000001
vn 0.000000 -1.000000 0.000000
vn -0.312899 -0.949785 -0.001506
vn -0.313172 -0.949695 -0.001967
vn -0.313172 -0.949695 0.001967
vn -0.312899 -0.949785 0.001506
vn -0.921002 0.000000 -0.389559
vn -0.999921 0.000000 -0.012558
vn -0.999921 0.000000 -0.012558
vn -0.921002 0.000000 -0.389559
vn 0.002601 -0.267033 0.963684
vn 0.377298 -0.006771 0.926067
vn 0.384439 -0.001197 0.923150
vn 0.002023 -0.267390 0.963586
vn 0.000023 -0.794969 0.606650
vn 0.000023 -0.794969 0.606650
vn 0.008597 -0.797821 0.602833
vn 0.007382 -0.797421 0.603378
vn 0.860567 0.000000 0.509338
vn 0.860567 0.000000 0.509338
vn 0.860567 0.000000 0.509338
vn 0.860567 0.000000 0.509338
vn 0.000000 1.000000 0.000001
vn 0.000000 1.000000 0.000000
vn 0.000000 1.000000 0.000000
vn 0.729621 0.174498 -0.661213
vn 0.729621 0.174498 -0.661213
vn 0.724484 0.224082 -0.651851
vn 0.746151 0.664304 -0.044267
vn 0.765792 0.643089 0.000000
vn 0.765792 0.643089 0.000000
vn 0.765792 0.643089 0.000000
vn 0.765792 0.643089 0.000000
vn 0.000000 -1.000000 -0.000001
vn 0.000000 -1.000000 0.000000
vn 0.000000 -1.000000 0.000000
vn 0.377297 -0.006771 -0.926067
vn 0.002601 -0.267032 -0.963684
vn 0.002023 -0.267390 -0.963586
vn 0.384438 -0.001197 -0.923150
vn 0.000023 -0.794969 -0.606650
vn 0.000023 -0.794969 -0.606650
vn 0.007382 -0.797421 -0.603378
vn 0.008597 -0.797821 -0.602833
vn 0.729621 -0.174499 -0.661213
vn 0.729621 -0.174499 -0.661213
vn 0.746151 -0.664304 -0.044267
vn 0.724484 -0.224083 -0.651851
vn 0.765792 -0.643089 0.000000
vn 0.765792 -0.643089 0.000000
vn 0.765792 -0.643089 0.000000
vn 0.765792 -0.643089 0.000000
vn 0.377298 0.006771 0.926067
vn 0.002601 0.267032 0.963684
vn 0.002023 0.267390 0.963586
vn 0.384439 0.001197 0.923150
vn 0.000023 0.794969 0.606650
vn 0.000023 0.794969 0.606650
vn 0.007382 0.797421 0.603378
vn 0.008597 0.797821 0.602833
vn 0.729620 0.174499 0.661215
vn 0.729620 0.174499 0.661215
vn 0.746150 0.664304 0.044267
vn 0.724483 0.224083 0.651852
vn 0.729620 -0.174498 0.661215
vn 0.729620 -0.174498 0.661215
vn 0.724483 -0.224083 0.651853
vn 0.746150 -0.664304 0.044267
vn 0.000336 0.813540 0.581509
vn 0.000336 0.813540 0.581509
vn 0.000336 0.813540 0.581509
vn 0.000336 0.813540 0.581509
vn 0.732043 0.681250 0.003494
vn 0.732043 0.681250 -0.003494
vn 0.000336 0.813540 -0.581509
vn 0.000336 0.813540 -0.581509
vn 0.000336 0.813540 -0.581509
vn 0.000336 0.813540 -0.581509
vn 0.860566 0.000000 -0.509338
vn 0.860566 0.000000 -0.509338
vn 0.860566 0.000000 -0.509338
vn 0.860566 0.000000 -0.509338
vn 0.699804 0.714335 0.000000
vn 0.699804 0.714335 0.000000
vn 0.699804 0.714335 0.000000
vn 0.699804 0.714335 0.000000
vn 0.860567 0.000000 0.509337
vn 0.860567 0.000000 0.509337
vn 0.860567 0.000000 0.509337
vn 0.860567 0.000000 0.509337
vn 0.732043 -0.681250 0.003494
vn 0.732043 -0.681250 -0.003494
vn 0.000336 -0.813540 0.581509
vn 0.000336 -0.813540 0.581509
vn 0.000336 -0.813540 0.581509
vn 0.000336 -0.813540 0.581509
vn 0.699804 -0.714335 0.000000
vn 0.699804 -0.714335 0.000000
vn 0.699804 -0.714335 0.000000
vn 0.699804 -0.714335 0.000000
vn 0.000336 -0.813540 -0.581509
vn 0.000336 -0.813540 -0.581509
vn 0.000336 -0.813540 -0.581509
vn 0.000336 -0.813540 -0.581509
vn 0.000000 0.000000 1.000000
vn 0.000000 0.000000 1.000000
vn 0.000000 1.000000 -0.000003
vn 0.000000 1.000000 -0.000003
vn 0.000000 0.000000 -1.000000
vn 0.000000 0.000000 -1.000000
vn 0.000000 -1.000000 -0.000003
vn 0.000000 -1.000000 -0.000003
vn 1.000000 0.000000 0.000000
vn 1.000000 0.000000 0.000000
vn 1.000000 0.000000 0.000000
vn 1.000000 0.000000 0.000000
vn -0.923964 0.000000 0.382480
vn -0.923964 0.000000 0.382480
vn 0.000000 1.000000 0.000000
vn 0.000000 1.000000 0.000000
vn 0.000000 1.000000 0.000000
vn 0.000000 1.000000 0.000000
vn 0.000000 -1.000000 0.000000
vn 0.000000 -1.000000 0.000000
vn 0.000000 -1.000000 0.000000
vn 0.000000 -1.000000 0.000000
vn 1.000000 0.000000 0.000000
vn 1.000000 0.000000 0.000000
vn 1.000000 0.000000 0.000000
vn 1.000000 0.000000 0.000000
vn 0.000000 1.000000 0.000003
vn 0.000000 1.000000 0.000003
vn -0.919861 0.000000 -0.392245
vn -0.919861 0.000000 -0.392245
vn 0.000000 -1.000000 0.000003
vn 0.000000 -1.000000 0.000003
vn 1.000000 0.000000 0.000000
vn 1.000000 0.000000 0.000000
vn 1.000000 0.000000 0.000000
vn 1.000000 0.000000 0.000000
vn 0.000000 1.000000 -0.000001
vn 0.000000 0.000000 1.000000
vn 0.000000 0.000000 1.000000
vn 0.000000 -1.000000 -0.000001
vn 0.000000 -1.000000 0.000001
vn 0.000000 0.000000 -1.000000
vn 0.000000 0.000000 -1.000000
vn 0.000000 1.000000 0.000001
vn 0.999908 -0.013583 0.000000
vn 0.999908 -0.013583 0.000000
vn 0.999908 -0.013583 0.000000
vn 0.999908 -0.013583 0.000000
vn -0.000000 0.268642 -0.963240
vn -0.000000 0.268642 -0.963240
vn 0.000000 0.268642 0.963240
vn 0.000000 0.268642 0.963240
vn 0.000000 -0.268642 0.963240
vn 0.000000 -0.268642 0.963240
vn -0.000000 -0.268642 -0.963240
vn -0.000000 -0.268642 -0.963240
vn 0.999908 0.013583 0.000000
vn 0.999908 0.013583 0.000000
vn 0.999908 0.013583 0.000000
vn 0.999908 0.013583 0.000000
vn -0.577350 -0.577341 0.577360
vn -0.577350 -0.577341 0.577360
vn -0.577350 -0.577341 0.577360
vn -0.577350 0.577341 0.577360
vn -0.577350 0.577341 0.577360
vn -0.577350 0.577341 0.577360
vn -0.577350 0.577341 -0.577360
vn -0.577350 0.577341 -0.577360
vn -0.577350 0.577341 -0.577360
vn -0.577350 -0.577341 -0.577360
vn -0.577350 -0.577341 -0.577360
vn -0.577350 -0.577341 -0.577360
vn 0.577350 -0.577341 0.577360
vn 0.577350 -0.577341 0.577360
vn 0.577350 -0.577341 0.577360
vn 0.577350 0.577341 0.577360
vn 0.577350 0.577341 0.577360
vn 0.577350 0.577341 0.577360
vn 0.582378 0.410904 -0.701423
vn 0.582378 0.410904 -0.701423
vn 0.582378 0.410904 -0.701423
vn 0.582378 0.410904 -0.701423
vn 0.577350 0.577341 -0.577360
vn 0.577350 0.577341 -0.577360
vn 0.577350 0.577341 -0.577360
vn 0.577350 -0.577341 -0.577360
vn 0.577350 -0.577341 -0.577360
vn 0.577350 -0.577341 -0.577360
vn 0.582376 -0.410905 0.701424
vn 0.582376 -0.410905 0.701424
vn 0.582376 -0.410905 0.701424
vn 0.582376 -0.410905 0.701424
vn 0.379135 0.844107 -0.379132
vn 0.379135 0.844107 -0.379132
vn 0.379135 0.844107 -0.379132
vn 0.582378 -0.410905 -0.701422
vn 0.582378 -0.410905 -0.701422
vn 0.582378 -0.410905 -0.701422
vn 0.582378 -0.410905 -0.701422
vn 0.379134 -0.844107 -0.379131
vn 0.379134 -0.844107 -0.379131
vn 0.379134 -0.844107 -0.379131
vn 0.582377 0.410906 0.701423
vn 0.582377 0.410906 0.701423
vn 0.582377 0.410906 0.701423
vn 0.582377 0.410906 0.701423
vn 0.379134 0.844108 0.379131
vn 0.379134 0.844108 0.379131
vn 0.379134 0.844108 0.379131
vn 0.379134 -0.844107 0.379132
vn 0.379134 -0.844107 0.379132
vn 0.379134 -0.844107 0.379132
vn 0.549278 0.558887 -0.621240
vn 0.549277 0.558887 -0.621240
vn 0.549277 0.558887 -0.621240
vn 0.549277 0.558887 -0.621240
vn 0.549277 0.558887 0.621241
vn 0.549277 0.558887 0.621241
vn 0.549277 0.558887 0.621241
vn 0.549277 0.558887 0.621241
vn 0.549276 -0.558888 0.621241
vn 0.549276 -0.558887 0.621241
vn 0.549276 -0.558888 0.621241
vn 0.549276 -0.558887 0.621241
vn 0.549278 -0.558887 -0.621240
vn 0.549277 -0.558887 -0.621240
vn 0.549277 -0.558887 -0.621240
vn 0.549277 -0.558887 -0.621240
s 1
g pCube1
usemtl initialShadingGroup
f 1/148/1 3/108/2 68/38/3 67/1/4
s 2
f 2/4/5 1/2/6 7/3/7 6/127/8
s off
f 3/108/9 2/4/10 9/10/11 8/109/12
s 3
f 4/5/13 7/6/14 76/70/15 75/74/16
s 2
f 5/8/17 4/7/18 29/152/19 31/104/20
s 4
f 6/127/21 5/8/22 11/12/23 14/11/24
s 5
f 8/109/25 10/9/26 38/155/27 37/110/28
s 6
f 10/125/29 9/10/30 14/11/31 13/126/32
f 12/13/33 11/12/34 32/31/35 34/105/36
s 7
f 13/126/37 12/13/38 64/41/39 63/35/40
s 5
f 15/150/41 17/120/42 58/58/43 57/14/44
s 9
f 16/15/45 15/16/46 21/18/47 20/132/48
s off
f 17/120/49 16/17/50 23/151/51 22/118/52
s 7
f 18/19/53 21/18/54 85/65/55 84/80/56
s 9
f 19/20/57 18/19/58 43/45/59 45/107/60
s 11
f 20/132/61 19/20/62 25/25/63 28/24/64
s 1
f 22/118/65 24/21/66 52/22/67 51/119/68
s 13
f 24/130/69 23/23/70 28/24/71 27/131/72
f 26/26/73 25/25/74 46/48/75 48/121/76
s 3
f 27/131/77 26/26/78 91/61/79 90/52/80
s off
f 30/27/81 29/28/82 72/73/83 71/29/84
f 31/104/85 30/30/86 33/153/87 32/31/88
f 34/105/89 33/32/90 41/156/91 40/106/92
s 7
f 35/33/93 38/34/94 63/35/40 62/134/95
s 5
f 36/37/96 35/36/97 60/163/98 59/57/99
s 15
f 37/110/100 36/37/101 69/55/102 68/38/103
s 16
f 39/40/104 42/39/105 102/167/106 101/87/107
s 17
f 40/106/108 39/40/109 65/66/110 64/41/111
s off
f 42/143/112 41/42/113 71/43/114 70/144/115
f 44/44/116 43/45/117 81/79/118 80/46/119
f 45/107/120 44/47/121 47/158/122 46/48/123
f 48/121/124 47/49/125 55/160/126 54/122/127
s 3
f 49/50/128 52/51/129 90/52/80 89/76/130
s 1
f 50/56/131 49/53/132 66/54/133 69/55/134
s 15
f 51/119/135 50/56/136 59/57/137 58/58/138
s 18
f 53/60/139 56/59/140 113/169/141 112/98/142
s 19
f 54/122/143 53/60/144 92/82/145 91/61/146
s off
f 56/145/147 55/62/148 80/63/149 79/146/150
s 7
f 57/133/151 60/64/152 86/68/153 85/65/55
s 20
f 61/67/154 65/66/155 98/86/156 97/85/157
s off
f 62/134/158 61/67/159 87/81/160 86/68/161
s 3
f 67/128/162 66/69/163 77/75/164 76/70/15
s 16
f 70/71/165 73/138/166 115/101/167 114/72/168
s 22
f 73/138/169 72/73/170 75/74/171 74/139/172
s 23
f 74/139/173 78/140/174 120/96/175 119/102/176
s off
f 78/140/177 77/75/178 89/76/179 88/141/180
s 18
f 79/77/181 82/135/182 104/83/183 103/78/184
s 25
f 82/135/185 81/79/186 84/80/187 83/136/188
s 20
f 83/136/189 87/81/190 94/84/191 93/137/192
s 23
f 88/141/193 92/82/194 108/97/195 107/142/196
s off
f 93/137/197 95/111/198 105/92/199 104/83/200
s 20
f 95/111/201 94/84/191 97/85/157 96/112/202
s off
f 96/112/203 98/86/204 101/87/205 100/113/206
f 99/88/207 102/89/208 114/90/209 117/117/210
f 100/113/211 99/91/212 106/168/213 105/92/214
f 103/147/215 106/93/216 110/94/217 113/95/218
s 23
f 107/142/196 109/114/219 118/103/220 120/96/175
s off
f 109/114/221 108/97/222 112/98/223 111/115/224
f 111/115/225 110/99/226 117/100/227 116/116/228
f 116/116/229 115/101/230 119/102/231 118/103/232
s 4
f 5/8/22 31/104/233 32/31/234 11/12/23
s 7
f 12/13/38 34/105/235 40/106/236 64/41/39
s 11
f 19/20/62 45/107/237 46/48/238 25/25/63
s 3
f 75/74/16 72/73/239 29/28/240 4/5/13
s off
f 30/30/241 71/43/242 41/42/243 33/153/244
s 15
f 68/38/103 3/108/245 8/109/246 37/110/100
s off
f 95/111/247 96/112/248 100/113/249 105/92/250
s 15
f 50/56/136 69/55/102 36/37/101 59/57/137
s off
f 109/114/251 111/115/252 116/116/253 118/103/254
f 99/88/255 117/117/256 110/94/257 106/93/258
s 7
f 84/80/56 81/79/259 43/45/260 18/19/53
s 15
f 22/118/261 51/119/135 58/58/138 17/120/262
s 3
f 26/26/78 48/121/263 54/122/264 91/61/79
s off
f 80/63/265 55/62/266 47/123/267 44/124/268
s 7
f 10/125/269 13/126/37 63/35/40 38/34/94
s 4
f 2/4/270 6/127/21 14/11/24 9/10/271
s 3
f 67/128/162 76/70/15 7/6/14 1/129/272
f 49/50/128 89/76/130 77/75/164 66/69/163
f 24/130/273 27/131/77 90/52/80 52/51/129
s 11
f 16/15/274 20/132/61 28/24/64 23/23/275
s 7
f 57/133/151 85/65/55 21/18/54 15/16/276
f 35/33/93 62/134/95 86/68/153 60/64/152
s off
f 87/81/277 61/67/278 97/85/279 94/84/280
s 16
f 65/66/281 39/40/104 101/87/107 98/86/282
s 18
f 82/135/182 83/136/283 93/137/284 104/83/183
f 92/82/285 53/60/139 112/98/142 108/97/286
s 16
f 73/138/166 74/139/287 119/102/288 115/101/167
s off
f 78/140/289 88/141/290 107/142/291 120/96/292
s 16
f 42/143/105 70/144/165 114/90/168 102/89/106
s 18
f 56/145/140 79/146/181 103/147/184 113/95/141
s off
f 1/148/293 2/4/294 3/108/295
s 2
f 4/7/18 5/8/17 6/127/8 7/149/7
s off
f 8/109/296 9/10/297 10/9/298
s 6
f 11/12/34 12/13/33 13/126/32 14/11/31
s off
f 15/150/299 16/17/300 17/120/301
s 9
f 18/19/58 19/20/57 20/132/48 21/18/47
s off
f 22/118/302 23/151/303 24/21/304
s 13
f 25/25/74 26/26/73 27/131/72 28/24/71
s off
f 29/152/305 30/30/306 31/104/307
f 32/31/308 33/153/309 34/105/310
s 5
f 35/154/97 36/37/96 37/110/28 38/155/27
s off
f 39/40/311 40/106/312 41/156/313 42/157/314
f 43/45/315 44/47/316 45/107/317
f 46/48/318 47/158/319 48/121/320
s 1
f 49/53/132 50/56/131 51/119/68 52/159/67
s off
f 53/60/321 54/122/322 55/160/323 56/161/324
s 5
f 57/162/44 58/58/43 59/57/99 60/163/98
s 17
f 61/67/325 62/134/326 63/35/327 64/41/111 65/66/110
s 1
f 66/164/133 67/1/4 68/38/3 69/55/134
s off
f 70/165/328 71/29/329 72/73/330 73/138/331
s 22
f 74/139/172 75/74/171 76/70/332 77/75/333 78/140/334
s off
f 79/166/335 80/46/336 81/79/337 82/135/338
s 25
f 83/136/188 84/80/187 85/65/339 86/68/340 87/81/341
s 19
f 88/141/342 89/76/343 90/52/344 91/61/146 92/82/145
s 20
f 93/137/192 94/84/191 95/111/201
f 96/112/202 97/85/157 98/86/156
s off
f 99/91/345 100/113/346 101/87/347 102/167/348
f 103/78/349 104/83/350 105/92/351 106/168/352
s 23
f 107/142/196 108/97/195 109/114/219
s off
f 110/99/353 111/115/354 112/98/355 113/169/356
f 114/72/357 115/101/358 116/116/359 117/100/360
s 23
f 118/103/220 119/102/176 120/96/175
